<?xml version="1.0" encoding="UTF-8"?><svg id="a" xmlns="http://www.w3.org/2000/svg" viewBox="0 0 472.97 125.43"><g><path d="M141.4,15.61v8.86h-5.67V0h20.54c5.7,0,7.86,2.4,7.86,5.91v3.79c0,3.51-2.15,5.91-7.86,5.91h-14.88Zm17.07-9.59c0-.94-.56-1.6-1.67-1.6h-15.4v6.74h15.43c1.11,0,1.63-.52,1.63-1.43v-3.72Z" style="fill:#fff;"/><path d="M189.96,24.47l-5.46-10.88h-11.68v10.88h-5.67V0h21.27c5.7,0,7.89,2.4,7.89,5.91v1.77c0,2.92-1.39,5.25-5.77,5.84l5.49,10.95h-6.08Zm.66-18.63c0-.97-.76-1.43-2.19-1.43h-15.61v4.76h15.61c1.49,0,2.19-.28,2.19-1.46v-1.88Z" style="fill:#fff;"/><path d="M207.47,24.47c-5.7,0-7.86-2.4-7.86-5.91V5.91c0-3.51,2.15-5.91,7.86-5.91h16.58c5.7,0,7.86,2.4,7.86,5.91v12.65c0,3.51-2.16,5.91-7.86,5.91h-16.58Zm18.77-18.63c0-.97-.76-1.43-2.19-1.43h-16.58c-1.43,0-2.19,.45-2.19,1.43v12.76c0,1.01,.76,1.42,2.19,1.42h16.58c1.42,0,2.19-.42,2.19-1.42V5.84Z" style="fill:#fff;"/><path d="M233.61,24.47v-4.45h6.85c1.49,0,2.16-.07,2.16-1.18V0h5.7V18.84c0,3.44-2.29,5.63-7.86,5.63h-6.85Z" style="fill:#fff;"/><path d="M252.48,24.47V0h25.79V4.41h-20.12v4.9h19.05v4.45h-19.05v6.26h20.12v4.45h-25.79Z" style="fill:#fff;"/><path d="M289.64,24.47c-5.7,0-7.86-2.4-7.86-5.91V5.91c0-3.51,2.15-5.91,7.86-5.91h20.19V4.41h-20.19c-1.43,0-2.19,.45-2.19,1.43v12.76c0,1.01,.76,1.42,2.19,1.42h20.19v4.45h-20.19Z" style="fill:#fff;"/><path d="M324.68,24.47V4.41h-12.62V0h30.66V4.41h-12.34V24.47h-5.7Z" style="fill:#fff;"/></g><path d="M154.58,93.37v32.07h-20.5V36.91h74.32c20.62,0,28.42,8.68,28.42,21.38v13.71c0,12.7-7.8,21.38-28.42,21.38h-53.82Zm61.74-34.71c0-3.4-2.01-5.78-6.04-5.78h-55.71v24.4h55.83c4.02,0,5.91-1.89,5.91-5.16v-13.46Z" style="fill:#fff;"/><path d="M446.44,125.43l-36.09-33.32-35.84,33.32h-26.78l49.67-44.26-49.67-44.26h26.66l35.96,33.45,35.96-33.45h26.41l-49.29,43.38,49.54,45.14h-26.53Z" style="fill:#fff;"/><polygon points="60.54 25.55 0 125.43 22.89 125.43 60.65 58.03 103.53 125.43 126.66 125.43 60.54 25.55" style="fill:#fff;"/><g><polygon points="268.26 86.7 337.17 86.7 337.17 70.61 334.18 70.61 268.26 70.61 247.76 70.61 247.76 125.43 341.07 125.43 341.07 109.34 268.26 109.34 268.26 86.7" style="fill:#fff;"/><polygon points="247.76 36.91 247.76 52.88 268.26 52.88 334.18 52.88 341.07 52.88 341.07 36.91 247.76 36.91" style="fill:#fff;"/></g></svg>